<?xml version="1.0" encoding="UTF-8" standalone="no"?>
<!-- Created with Inkscape (http://www.inkscape.org/) -->

<svg
   xmlns:dc="http://purl.org/dc/elements/1.1/"
   xmlns:cc="http://creativecommons.org/ns#"
   xmlns:rdf="http://www.w3.org/1999/02/22-rdf-syntax-ns#"
   xmlns:svg="http://www.w3.org/2000/svg"
   xmlns="http://www.w3.org/2000/svg"
   xmlns:sodipodi="http://sodipodi.sourceforge.net/DTD/sodipodi-0.dtd"
   xmlns:inkscape="http://www.inkscape.org/namespaces/inkscape"
   width="210mm"
   height="297mm"
   viewBox="0 0 744.09448819 1052.3622047"
   id="svg2"
   version="1.1"
   inkscape:version="0.91 r13725"
   inkscape:export-filename="/home/fredrik/path4174.png"
   inkscape:export-xdpi="56.953167"
   inkscape:export-ydpi="56.953167"
   sodipodi:docname="fame.svg">
  <defs
     id="defs4" />
  <sodipodi:namedview
     id="base"
     pagecolor="#ffffff"
     bordercolor="#666666"
     borderopacity="1.0"
     inkscape:pageopacity="0.0"
     inkscape:pageshadow="2"
     inkscape:zoom="0.98994949"
     inkscape:cx="287.5942"
     inkscape:cy="672.41609"
     inkscape:document-units="px"
     inkscape:current-layer="layer1"
     showgrid="false"
     inkscape:window-width="1839"
     inkscape:window-height="1050"
     inkscape:window-x="81"
     inkscape:window-y="30"
     inkscape:window-maximized="1" />
  <metadata
     id="metadata7">
    <rdf:RDF>
      <cc:Work
         rdf:about="">
        <dc:format>image/svg+xml</dc:format>
        <dc:type
           rdf:resource="http://purl.org/dc/dcmitype/StillImage" />
        <dc:title></dc:title>
      </cc:Work>
    </rdf:RDF>
  </metadata>
  <g
     inkscape:label="Layer 1"
     inkscape:groupmode="layer"
     id="layer1">
    <path
       style="fill:none;fill-rule:evenodd;stroke:#000000;stroke-width:6.9;stroke-linecap:butt;stroke-linejoin:miter;stroke-opacity:1;stroke-miterlimit:4;stroke-dasharray:none"
       d="M 151.42857,399.50506 385.71429,243.79078 632.85714,312.3622 417.14286,468.07649 Z"
       id="path4136"
       inkscape:connector-curvature="0" />
    <path
       style="fill:none;fill-rule:evenodd;stroke:#000000;stroke-width:6.9;stroke-linecap:butt;stroke-linejoin:miter;stroke-opacity:1;stroke-miterlimit:4;stroke-dasharray:none"
       d="M 147.85714,425.21935 408.57143,488.07649 405,740.93363 l -266.42857,-75 z"
       id="path4138"
       inkscape:connector-curvature="0" />
    <path
       style="fill:none;fill-rule:evenodd;stroke:#000000;stroke-width:6.9;stroke-linecap:butt;stroke-linejoin:miter;stroke-opacity:1;stroke-miterlimit:4;stroke-dasharray:none"
       d="m 425.71429,487.3622 210,-151.42857 -2.85715,285 -199.28571,112.85715 z"
       id="path4140"
       inkscape:connector-curvature="0" />
    <path
       style="fill:none;fill-rule:evenodd;stroke:#000000;stroke-width:6.9;stroke-linecap:butt;stroke-linejoin:miter;stroke-opacity:1;stroke-miterlimit:4;stroke-dasharray:none"
       d="m 171.42857,645.93363 5,-181.42857 31.42857,7.85714 -6.42857,140 47.14286,12.85715 2.85714,-77.85715 27.85714,6.42858 -1.42857,75 95,24.28571 -0.71428,38.57143 z"
       id="path4142"
       inkscape:connector-curvature="0" />
    <path
       style="fill:none;fill-rule:evenodd;stroke:#000000;stroke-width:6.9;stroke-linecap:butt;stroke-linejoin:miter;stroke-opacity:1;stroke-miterlimit:4;stroke-dasharray:none"
       d="m 235,381.64792 198.57143,-95 50,10.71428 L 421.42857,440.21935 390,429.50506 l 23.57143,-60.71428 -52.14286,-17.85715 -82.14286,42.85715 z"
       id="path4144"
       inkscape:connector-curvature="0" />
    <path
       style="fill:none;fill-rule:evenodd;stroke:#000000;stroke-width:6.9;stroke-linecap:butt;stroke-linejoin:miter;stroke-opacity:1;stroke-miterlimit:4;stroke-dasharray:none"
       d="m 440,307.3622 -12.14286,37.85715 -35.71428,-10 z"
       id="path4146"
       inkscape:connector-curvature="0"
       sodipodi:nodetypes="cccc" />
    <path
       style="fill:none;fill-rule:evenodd;stroke:#000000;stroke-width:6.9;stroke-linecap:butt;stroke-linejoin:miter;stroke-opacity:1;stroke-miterlimit:4;stroke-dasharray:none"
       d="m 452.5,690.21935 -9.28571,-177.5 48.21428,-33.92857 L 530,567.3622 l 24.28571,-129.28571 49.28572,-38.57143 2.85714,201.42857 -22.85714,17.85715 -2.85714,-115 -23.57143,78.57142 -43.57143,20.71429 -35,-67.85714 5.71428,134.28571 z"
       id="path4148"
       inkscape:connector-curvature="0" />
    <path
       style="fill:#00ff00;stroke-width:6.9000001;stroke-miterlimit:4;stroke-dasharray:none"
       d="m 270.89484,699.01001 -127.69465,-36.07574 0.28855,-13.44411 c 0.7674,-35.75415 8.28808,-217.10764 9.03435,-217.85391 0.67022,-0.67023 251.54276,58.98469 251.86335,59.89052 0.0634,0.17905 -2.95725,202.43486 -3.53979,237.01926 -0.0629,3.73214 -0.59644,6.73037 -1.18573,6.66271 -0.58928,-0.0677 -58.53403,-16.35707 -128.76608,-36.19873 z m 105.5518,-25.79391 0,-23.54421 -3.92857,-0.9748 c -2.16072,-0.53615 -23.21429,-5.91656 -46.78572,-11.95648 l -42.85714,-10.98167 0,-37.65234 0,-37.65234 -17.00738,-4.00626 c -9.35406,-2.20344 -17.32715,-3.68649 -17.71798,-3.29566 -0.39083,0.39083 -1.32466,17.59465 -2.07517,38.23072 -0.75051,20.63605 -1.52102,37.69228 -1.71223,37.90271 -0.19122,0.21042 -8.96902,-1.95138 -19.50622,-4.80401 l -19.15856,-5.18662 3.1969,-69.44499 c 1.7583,-38.19475 2.73039,-69.85425 2.1602,-70.35445 -1.21133,-1.06265 -37.6384,-10.18689 -38.2318,-9.57629 -0.75871,0.7807 -5.492,188.20142 -4.77121,188.92222 0.59789,0.59788 203.97946,47.50764 207.32345,47.81894 0.58928,0.0549 1.07143,-10.49516 1.07143,-23.44447 z"
       id="path4150"
       inkscape:connector-curvature="0" />
    <path
       style="fill:#ff5555;stroke-width:6.9000001;stroke-miterlimit:4;stroke-dasharray:none"
       d="m 437.29435,716.24841 c -0.43759,-5.61131 -2.09304,-55.20238 -3.67876,-110.20238 -1.58573,-55 -3.14049,-103.6617 -3.45501,-108.1371 l -0.57187,-8.1371 96.64325,-69.63275 c 53.15379,-38.29801 98.57182,-71.07281 100.92896,-72.8329 l 4.28572,-3.20015 -0.4421,50.25571 c -0.24316,27.64065 -0.88602,89.39072 -1.42857,137.22239 l -0.98648,86.96667 -69.28571,39.23979 c -38.10714,21.58188 -80.96953,45.85938 -95.24976,53.95 l -25.96404,14.71022 -0.79563,-10.2024 z m 33.08086,-32.74305 17.5,-11.32022 -0.0196,-9.49813 c -0.0108,-5.22397 -0.96374,-30.06955 -2.11768,-55.21241 -1.15395,-25.14286 -2.0949,-47.32143 -2.091,-49.28571 0.004,-2.2559 4.97821,5.90032 13.50288,22.14285 7.42268,14.14286 13.70844,26.29367 13.96834,27.0018 0.42321,1.15307 45.80392,-19.33675 48.62723,-21.95564 0.63573,-0.5897 4.93553,-13.53776 9.55512,-28.77346 l 8.39925,-27.70127 0.26177,24.28572 c 0.14398,13.35714 0.6656,35.42992 1.15917,49.05061 l 0.89739,24.76491 15.43274,-11.90777 15.43273,-11.90775 -0.77923,-37.14286 c -0.42857,-20.42857 -1.19147,-67.86419 -1.6953,-105.41248 -0.512,-38.15544 -1.47,-68.08498 -2.17182,-67.85104 -3.48117,1.16039 -55.43265,42.96976 -56.02413,45.08694 -0.37833,1.35426 -5.39083,27.66987 -11.13889,58.47914 -5.74805,30.80925 -10.82735,55.55925 -11.28733,55 -0.45998,-0.55928 -8.435,-18.53669 -17.72227,-39.94985 -11.44974,-26.39902 -17.3947,-38.54855 -18.46623,-37.73883 -0.86915,0.65678 -12.50885,8.80199 -25.86599,18.10045 -13.35714,9.29847 -24.83685,17.38208 -25.51046,17.96358 -1.1239,0.97025 6.9885,176.38823 8.50377,183.88052 0.42325,2.09277 1.2906,2.90287 2.40572,2.2469 0.9591,-0.56419 9.61883,-6.11989 19.24383,-12.346 z"
       id="path4152"
       inkscape:connector-curvature="0" />
    <path
       style="fill:#00ffff;stroke-width:6.9000001;stroke-miterlimit:4;stroke-dasharray:none"
       d="m 289.47498,430.9069 c -69.44156,-17.93754 -126.46246,-32.8188 -126.71311,-33.06944 -0.25066,-0.25066 49.97884,-34.00379 111.62109,-75.00695 l 112.07682,-74.55121 116.77914,32.30922 c 64.22853,17.77006 117.28599,32.75299 117.90546,33.29539 0.83641,0.73235 -195.83097,144.22408 -203.98346,148.82965 -0.78571,0.44387 -58.24438,-13.86913 -127.68594,-31.80666 z m 167.5254,-61.90631 c 17.74307,-40.80356 32.10916,-74.33637 31.92463,-74.51735 -0.18453,-0.18097 -12.87162,-2.97949 -28.19353,-6.21893 l -27.858,-5.88988 -103.91839,49.69294 c -57.15511,27.33112 -103.92227,50.01437 -103.92701,50.40723 -0.005,0.39286 12.30967,4.09602 27.36535,8.22924 l 27.37396,7.51497 41.1211,-21.44223 41.1211,-21.44223 22.43848,7.83769 c 12.34115,4.31073 22.6717,8.07093 22.95678,8.35601 0.28507,0.28507 -4.67937,13.85634 -11.0321,30.15838 -6.35273,16.30203 -11.27464,29.91583 -10.93758,30.25288 1.54522,1.54523 37.54677,12.94163 38.37255,12.14696 0.51289,-0.49356 15.44959,-34.28211 33.19266,-75.08568 z"
       id="path4154"
       inkscape:connector-curvature="0" />
    <path
       style="fill:#00ffff;fill-opacity:1;stroke-width:6.9000001;stroke-miterlimit:4;stroke-dasharray:none"
       d="m 413.86327,337.30741 c -4.72247,-1.37363 -9.22987,-2.72068 -10.01646,-2.99344 -1.16785,-0.40497 22.91872,-15.40561 27.65542,-17.22325 0.86346,-0.33134 0.0698,3.48215 -2.3257,11.17519 -2.60157,8.35475 -4.0762,11.65837 -5.18171,11.60859 -0.84989,-0.0383 -5.40909,-1.19346 -10.13155,-2.56709 z"
       id="path4176"
       inkscape:connector-curvature="0"
       inkscape:export-xdpi="56.953167"
       inkscape:export-ydpi="56.953167" />
  </g>
</svg>
